<?xml version="1.0" standalone="no"?>
<!DOCTYPE svg PUBLIC "-//W3C//DTD SVG 20010904//EN"
 "http://www.w3.org/TR/2001/REC-SVG-20010904/DTD/svg10.dtd">
<svg version="1.0" xmlns="http://www.w3.org/2000/svg"
 width="512.000000pt" height="512.000000pt" viewBox="0 0 512.000000 512.000000"
 preserveAspectRatio="xMidYMid meet">
<metadata>
Created by potrace 1.11, written by Peter Selinger 2001-2013
</metadata>
<g transform="translate(0.000000,512.000000) scale(0.100000,-0.100000)"
fill="#000000" stroke="none">
<path d="M2735 4913 c-168 -218 -237 -307 -400 -518 -54 -72 -102 -132 -105
-135 -3 -3 -24 -30 -47 -60 -22 -30 -67 -89 -100 -131 -32 -41 -130 -169 -218
-283 -88 -114 -204 -265 -258 -334 -134 -173 -116 -149 -391 -507 -136 -176
-252 -327 -259 -335 -7 -8 -41 -53 -77 -100 -36 -47 -67 -87 -70 -90 -3 -3
-20 -24 -39 -48 l-33 -43 -4 -226 c-1 -124 -6 -433 -9 -687 -4 -254 -8 -562
-10 -686 -8 -512 -9 -719 -4 -724 2 -3 148 48 324 113 176 65 352 129 390 143
140 51 1254 460 1380 508 119 44 272 100 465 170 41 15 210 77 375 138 165 61
318 117 340 125 123 44 243 88 260 96 11 5 55 21 97 36 l77 27 -19 47 c-61
153 -103 260 -115 286 -7 17 -22 55 -34 85 -29 72 -36 90 -49 120 -6 14 -45
108 -86 210 -40 102 -118 293 -171 425 -53 132 -128 319 -167 415 -39 96 -76
189 -83 205 -7 17 -28 66 -45 110 -17 44 -38 94 -45 110 -7 17 -37 89 -65 160
-29 72 -76 189 -105 260 -29 72 -90 222 -135 335 -91 225 -165 408 -185 455
-7 17 -54 134 -105 260 -51 127 -97 240 -104 253 -11 21 -21 10 -171 -185z"/>
</g>
</svg>
