<?xml version="1.0" encoding="UTF-8"?>
<svg width="24px" height="24px" viewBox="0 0 24 24" version="1.1" xmlns="http://www.w3.org/2000/svg" xmlns:xlink="http://www.w3.org/1999/xlink">
    <g id="Icon/Check---On" stroke="none" stroke-width="1" fill="none" fill-rule="evenodd">
        <path d="M6.5638852,4 L17.4361148,4 C18.3276335,4 18.6509198,4.09282561 18.9768457,4.2671327 C19.3027716,4.4414398 19.5585602,4.69722837 19.7328673,5.0231543 C19.9071744,5.34908022 20,5.67236646 20,6.5638852 L20,17.4361148 C20,18.3276335 19.9071744,18.6509198 19.7328673,18.9768457 C19.5585602,19.3027716 19.3027716,19.5585602 18.9768457,19.7328673 C18.6509198,19.9071744 18.3276335,20 17.4361148,20 L6.5638852,20 C5.67236646,20 5.34908022,19.9071744 5.0231543,19.7328673 C4.69722837,19.5585602 4.4414398,19.3027716 4.2671327,18.9768457 C4.09282561,18.6509198 4,18.3276335 4,17.4361148 L4,6.5638852 C4,5.67236646 4.09282561,5.34908022 4.2671327,5.0231543 C4.4414398,4.69722837 4.69722837,4.4414398 5.0231543,4.2671327 C5.34908022,4.09282561 5.67236646,4 6.5638852,4 Z M11,15.4 L16.4,10 L15,8.6 L11,12.6 L9,10.6 L7.6,12 L11,15.4 Z" id="Fill" fill="#6FC59F" fill-rule="nonzero"></path>
    </g>
</svg>