<?xml version="1.0" encoding="UTF-8"?>
<svg width="24px" height="24px" viewBox="0 0 24 24" version="1.1" xmlns="http://www.w3.org/2000/svg" xmlns:xlink="http://www.w3.org/1999/xlink">
    <!-- Generator: Sketch 52.6 (67491) - http://www.bohemiancoding.com/sketch -->
    <title>Icon/Message-Coloured</title>
    <desc>Created with Sketch.</desc>
    <g id="Icon/Message-Coloured" stroke="none" stroke-width="1" fill="none" fill-rule="evenodd">
        <g id="Group" transform="translate(2.000000, 3.000000)">
            <path d="M19.4444444,9.94117647 C19.4444444,5.92882353 15.7133333,2.67647059 11.1111111,2.67647059 C6.50888889,2.67647059 2.77777778,5.92882353 2.77777778,9.94117647 C2.77777778,13.9535294 6.50888889,17.2058824 11.1111111,17.2058824 C11.6944444,17.2058824 12.2633333,17.1522353 12.8133333,17.0527647 L17.2222222,19.4411765 L17.2222222,14.8688824 C18.5977778,13.5735294 19.4444444,11.8456471 19.4444444,9.94117647 Z" id="Path" fill="#CBCACA" transform="translate(11.111111, 11.058824) scale(-1, 1) translate(-11.111111, -11.058824) "></path>
            <path d="M17.2222222,7.82352941 C17.2222222,3.81117647 13.4911111,0.558823529 8.88888889,0.558823529 C4.28666667,0.558823529 0.555555556,3.81117647 0.555555556,7.82352941 C0.555555556,11.8358824 4.28666667,15.0882353 8.88888889,15.0882353 C9.47222222,15.0882353 10.0411111,15.0345882 10.5911111,14.9351176 L15,17.3235294 L15,12.7512353 C16.3755556,11.4558824 17.2222222,9.728 17.2222222,7.82352941 Z" id="Path" fill="#FFFFFF" transform="translate(8.888889, 8.941176) scale(-1, 1) translate(-8.888889, -8.941176) "></path>
            <path d="M8.88888889,15.6470588 C3.99598548,15.6470588 0,12.1635984 0,7.82352941 C0,3.48346039 3.99598548,0 8.88888889,0 C13.7817923,0 17.7777778,3.48346039 17.7777778,7.82352941 C17.7777778,9.75537666 16.9746495,11.5725141 15.5555556,12.9887021 L15.5555556,17.3235294 C15.5555556,17.7463958 15.1067038,18.0160463 14.7365745,17.8155375 L10.4958323,15.5182153 C9.96600429,15.6035482 9.42932197,15.6470588 8.88888889,15.6470588 Z M14.4444444,16.3878576 L14.4444444,12.7512353 C14.4444444,12.5966357 14.5081161,12.4489438 14.6203161,12.3432857 C15.9312649,11.1087726 16.6666667,9.51388543 16.6666667,7.82352941 C16.6666667,4.13909842 13.2006661,1.11764706 8.88888889,1.11764706 C4.5771117,1.11764706 1.11111111,4.13909842 1.11111111,7.82352941 C1.11111111,11.5079604 4.5771117,14.5294118 8.88888889,14.5294118 C9.42882247,14.5294118 9.96468297,14.4806264 10.4927998,14.3851135 C10.6164295,14.3627544 10.7439433,14.3831982 10.8545367,14.4431096 L14.4444444,16.3878576 Z" id="Path" fill="#2E3135" fill-rule="nonzero" transform="translate(8.888889, 8.941566) scale(-1, 1) translate(-8.888889, -8.941566) "></path>
        </g>
        <g id="flash-21" transform="translate(6.000000, 6.000000)" fill="#3B5998" fill-rule="nonzero">
            <path d="M4.9392813,6.975 L2,6.975 C1.5768202,6.975 1.36489097,6.46335759 1.66412428,6.16412428 L6.16412428,1.66412428 C6.51854854,1.30970001 7.10912792,1.67469814 6.95062457,2.15020819 L6.1590273,4.525 L9.5,4.525 C9.9231798,4.525 10.135109,5.03664241 9.83587572,5.33587572 L5.33587572,9.83587572 C5.00912276,10.1626287 4.45549437,9.8777216 4.53146289,9.42191048 L4.9392813,6.975 Z" id="Path" opacity="0.25"></path>
            <path d="M4.41308333,2.75866811 L2.14675144,5.025 L4.5,5.025 C4.79352123,5.025 5.01679171,5.28856196 4.96853711,5.57808952 L4.71221273,7.11603583 L7.35324856,4.475 L4.5,4.475 C4.17578508,4.475 3.94684967,4.15736909 4.04937543,3.84979181 L4.41308333,2.75866811 Z M3.9392813,5.975 L1,5.975 C0.576820196,5.975 0.36489097,5.46335759 0.664124279,5.16412428 L5.16412428,0.664124279 C5.51854854,0.309700014 6.10912792,0.674698139 5.95062457,1.15020819 L5.1590273,3.525 L8.5,3.525 C8.9231798,3.525 9.13510903,4.03664241 8.83587572,4.33587572 L4.33587572,8.83587572 C4.00912276,9.16262868 3.45549437,8.8777216 3.53146289,8.42191048 L3.9392813,5.975 Z" id="Path"></path>
        </g>
    </g>
</svg>